PathFileType	4	(X/Y/Z)
DataRate	CameraRate	NumFrames	NumMarkers	Units	OrigDataRate	OrigDataStartFrame	OrigNumFrames	
  120.0	  120.0	    6	     56	     mm	  120.0	      276	    551
Frame#	Time	LASI			RASI			LPSI			RPSI			RTH1			RTH2			RTH3			RLFC			RMFC			LTH1			LTH2			LTH3			LLFC			LMFC			RTB1			RTB2			RTB3			RLMAL			RMMAL			LTB1			LTB2			LTB3			LMMAL			LLMAL			RCAL			RTOE			RMT5			LCAL			LTOE			LMT5			LACR			RACR			CLAV			C7			LASH			LPSH			RASH			RPSH			RUA1			RUA2			RUA3			RLEL			RMEL			LUA1			LUA2			LUA3			LLEL			LMEL			RFAsuperior			RFAradius			RFAulna			LFAsuperior			LFAradius			LFAulna			RHJC			LHJC			
		X1	Y1	Z1	X2	Y2	Z2	X3	Y3	Z3	X4	Y4	Z4	X5	Y5	Z5	X6	Y6	Z6	X7	Y7	Z7	X8	Y8	Z8	X9	Y9	Z9	X10	Y10	Z10	X11	Y11	Z11	X12	Y12	Z12	X13	Y13	Z13	X14	Y14	Z14	X15	Y15	Z15	X16	Y16	Z16	X17	Y17	Z17	X18	Y18	Z18	X19	Y19	Z19	X20	Y20	Z20	X21	Y21	Z21	X22	Y22	Z22	X23	Y23	Z23	X24	Y24	Z24	X25	Y25	Z25	X26	Y26	Z26	X27	Y27	Z27	X28	Y28	Z28	X29	Y29	Z29	X30	Y30	Z30	X31	Y31	Z31	X32	Y32	Z32	X33	Y33	Z33	X34	Y34	Z34	X35	Y35	Z35	X36	Y36	Z36	X37	Y37	Z37	X38	Y38	Z38	X39	Y39	Z39	X40	Y40	Z40	X41	Y41	Z41	X42	Y42	Z42	X43	Y43	Z43	X44	Y44	Z44	X45	Y45	Z45	X46	Y46	Z46	X47	Y47	Z47	X48	Y48	Z48	X49	Y49	Z49	X50	Y50	Z50	X51	Y51	Z51	X52	Y52	Z52	X53	Y53	Z53	X54	Y54	Z54	X55	Y55	Z55	X56	Y56	Z56	

276	2.30000	572.82674	1026.05946	-697.67536	701.84633	1024.74244	-483.07023	469.16676	1047.20714	-537.97749	515.24860	1047.44187	-464.63640	680.61748	849.38243	-409.23037	701.71041	723.75013	-445.64686	624.34996	612.98183	-373.59466	635.40062	531.14197	-374.73104	548.89122	501.09451	-453.27157	497.28040	883.08941	-714.50710	531.88327	766.00845	-730.67047	449.58064	638.42968	-682.86513	437.61710	531.75671	-683.01724	509.17349	520.12972	-583.79646	632.95256	400.56333	-429.82445	636.84148	344.02439	-356.60183	609.50580	223.64535	-409.11069	591.35676	133.05381	-333.37547	566.70574	124.62639	-416.43814	495.33864	394.44259	-658.57691	422.28948	299.78796	-689.73905	468.67713	207.60448	-640.88798	461.84456	121.75989	-606.36706	391.70918	125.97016	-654.75162	513.70361	101.25506	-330.28886	688.53642	74.72338	-460.03335	716.71320	62.47078	-366.24778	362.29176	98.36099	-586.73447	543.54914	79.99439	-707.51729	470.33227	60.67172	-764.43921	444.34963	1470.20547	-678.83578	636.29097	1468.43848	-357.69580	642.93382	1455.20758	-552.03083	516.96898	1530.78399	-504.90338	523.20912	1443.29369	-684.51630	411.28627	1441.41592	-620.08109	687.17946	1444.86033	-408.04464	582.36055	1434.57552	-347.35604	687.17233	1373.32239	-291.45857	735.12567	1322.12713	-304.13086	689.86878	1276.83332	-223.41447	772.49441	1235.87604	-198.98541	721.81500	1172.83287	-237.71475	397.88545	1400.81798	-725.80519	371.74562	1312.37919	-710.94200	383.49410	1320.59647	-787.68142	356.64723	1233.53952	-857.03544	379.90702	1165.81573	-805.67255	839.06758	1242.87136	-248.46239	943.58090	1209.83215	-377.29840	970.77693	1182.39177	-323.54094	414.05621	1250.38372	-893.28176	585.65092	1229.86260	-944.87463	554.19787	1206.33472	-994.27451	632.58495	953.43411	-483.35255	541.92868	976.66446	-636.52869	
277	2.30833	572.90985	1026.05265	-697.67620	701.89800	1024.73949	-483.02386	469.15193	1047.23124	-537.99060	515.21239	1047.46544	-464.66314	680.53454	849.34683	-409.42796	701.72418	723.76175	-445.67571	624.31614	612.99306	-373.61316	635.30031	531.08376	-374.91967	548.97011	501.07956	-453.27063	497.34576	883.08451	-714.51548	531.96845	766.00639	-730.72686	449.67798	638.42547	-682.90377	437.69840	531.73258	-683.02660	509.16852	520.11699	-583.77663	633.01690	400.55290	-429.82099	636.72453	343.93517	-356.80929	609.60004	223.63236	-409.11268	591.33470	133.04722	-333.41126	566.78938	124.60097	-416.44733	495.43087	394.46184	-658.68631	422.36483	299.77797	-689.75746	468.76153	207.65603	-640.99616	462.13491	121.63159	-606.22345	391.79381	125.94072	-654.76586	513.71193	101.26230	-330.29204	688.56502	74.75399	-460.06277	716.72723	62.48240	-366.25897	362.24682	98.38064	-586.73994	543.59586	79.99249	-707.51475	470.42956	60.64308	-764.46568	444.38481	1470.23642	-678.78763	636.25410	1468.42476	-357.66615	642.97309	1455.21755	-552.00188	517.00618	1530.79518	-504.89269	523.31309	1443.29636	-684.54402	411.33309	1441.44635	-620.05132	687.20612	1444.85225	-408.02778	582.33518	1434.55653	-347.33426	687.13306	1373.29471	-291.45101	735.12449	1322.10380	-304.12460	689.82088	1276.78316	-223.42796	772.45035	1235.83358	-199.00269	721.83778	1172.75643	-237.69251	397.93103	1400.82333	-725.77554	371.92932	1312.37741	-710.93237	383.57836	1320.59593	-787.67460	356.72494	1233.54522	-857.04188	379.96041	1165.81389	-805.66425	839.06899	1242.80784	-248.45885	943.60951	1209.83837	-377.29015	970.72568	1182.35494	-323.66057	414.12935	1250.39889	-893.28317	585.70097	1229.91428	-944.88184	554.26987	1206.34617	-994.28394	632.57719	953.44363	-483.31373	541.99793	976.66443	-636.53736	
278	2.31667	573.00625	1026.03877	-697.69489	701.96741	1024.72699	-482.99431	469.14598	1047.25635	-538.00573	515.19903	1047.48703	-464.68956	680.48181	849.32338	-409.59116	701.75897	723.77538	-445.71631	624.29611	613.00642	-373.63510	635.23929	531.04252	-375.06040	549.08050	501.07495	-453.29333	497.43112	883.08636	-714.54048	532.07878	766.00659	-730.78989	449.78300	638.41031	-682.93532	437.80093	531.73748	-683.17604	509.16445	520.10742	-583.75964	633.10824	400.54457	-429.81728	636.64702	343.86085	-356.98649	609.71525	223.62339	-409.14924	591.31900	133.02924	-333.46326	566.89009	124.58273	-416.46985	495.54704	394.48070	-658.85140	422.46664	299.77335	-689.79956	468.84830	207.69180	-641.10548	462.48582	121.48996	-606.07123	391.88999	125.91961	-654.82706	513.76092	101.29080	-330.29461	688.63887	74.78315	-460.09595	716.77143	62.50485	-366.28500	362.23003	98.40411	-586.76375	543.64170	79.99210	-707.52577	470.53438	60.62922	-764.51115	444.44808	1470.27084	-678.74708	636.23899	1468.40790	-357.63516	643.02830	1455.21571	-551.98510	517.07110	1530.80528	-504.87695	523.44528	1443.28338	-684.60635	411.41147	1441.47561	-620.02999	687.24761	1444.83522	-408.02369	582.32788	1434.54670	-347.31501	687.11078	1373.28110	-291.44240	735.14316	1322.07481	-304.11383	689.79001	1276.73920	-223.43354	772.42232	1235.79760	-199.01732	721.87826	1172.68183	-237.67738	398.00848	1400.82803	-725.76316	372.15075	1312.38131	-710.93345	383.68367	1320.60425	-787.67998	356.82802	1233.55801	-857.06403	380.02262	1165.81866	-805.67965	839.08780	1242.75260	-248.44824	943.65239	1209.83683	-377.29421	970.69831	1182.32544	-323.74488	414.22647	1250.41544	-893.30500	585.77416	1229.97224	-944.89396	554.37171	1206.35322	-994.33272	632.58792	953.44594	-483.29005	542.07426	976.66045	-636.55377	
279	2.32500	573.09412	1026.02380	-697.72390	702.03882	1024.70722	-482.98002	469.14242	1047.28666	-538.02762	515.19448	1047.51235	-464.72225	680.43436	849.29819	-409.77262	701.79900	723.79157	-445.77628	624.28397	613.02651	-373.66531	635.18406	530.99314	-375.22595	549.19698	501.07286	-453.32704	497.51681	883.09347	-714.57337	532.18643	766.01222	-730.83640	449.87527	638.38986	-682.95813	437.89808	531.77313	-683.46186	509.17390	520.11757	-583.77407	633.19845	400.54043	-429.80944	636.58178	343.78455	-357.18625	609.82954	223.62101	-409.20997	591.29523	133.00646	-333.53812	566.98984	124.57255	-416.50101	495.66914	394.51497	-659.03110	422.57615	299.77017	-689.85412	468.93048	207.72554	-641.21811	462.81453	121.37028	-605.98482	391.98122	125.91121	-654.91022	513.81827	101.32086	-330.31676	688.72378	74.81792	-460.13772	716.83047	62.53638	-366.33153	362.23657	98.43012	-586.81183	543.67977	79.99385	-707.54321	470.63028	60.62678	-764.56672	444.52615	1470.31351	-678.71961	636.23657	1468.39707	-357.61982	643.08396	1455.21006	-551.98639	517.14346	1530.82291	-504.86264	523.57993	1443.26754	-684.67309	411.50146	1441.51040	-620.02058	687.29173	1444.81689	-408.03536	582.32910	1434.54835	-347.30181	687.09928	1373.28136	-291.43905	735.16742	1322.04795	-304.11694	689.76971	1276.70807	-223.44076	772.40103	1235.77162	-199.03507	721.92777	1172.61681	-237.66653	398.10178	1400.83903	-725.76259	372.37898	1312.38951	-710.94184	383.78819	1320.62083	-787.68558	356.94264	1233.58062	-857.09277	380.07921	1165.82918	-805.70854	839.11256	1242.72199	-248.44823	943.69507	1209.83845	-377.31453	970.67060	1182.29889	-323.84430	414.33377	1250.43554	-893.33559	585.85736	1230.04643	-944.91382	554.48326	1206.35974	-994.39982	632.59796	953.44482	-483.27908	542.14277	976.65753	-636.57794	
280	2.33333	573.14629	1026.01617	-697.74779	702.08736	1024.68903	-482.97324	469.13573	1047.31603	-538.04987	515.18586	1047.53496	-464.75650	680.38206	849.26548	-409.96210	701.82248	723.80508	-445.84014	624.27394	613.04779	-373.69604	635.12325	530.93288	-375.41518	549.28321	501.06660	-453.35228	497.57287	883.10177	-714.59770	532.25544	766.02506	-730.85236	449.93290	638.37287	-682.97107	437.95897	531.81594	-683.75975	509.20120	520.15759	-583.83393	633.25259	400.54109	-429.79789	636.51941	343.71109	-357.38729	609.91055	223.62115	-409.26040	591.26284	132.98741	-333.61409	567.06120	124.56643	-416.52790	495.76406	394.56728	-659.16630	422.65625	299.76355	-689.89828	468.99345	207.76195	-641.31258	463.02771	121.30062	-605.99505	392.04535	125.91209	-654.97158	513.84666	101.32710	-330.35970	688.77789	74.85569	-460.17429	716.87492	62.56481	-366.38315	362.24865	98.44940	-586.86740	543.70450	79.99633	-707.55524	470.69897	60.62662	-764.61369	444.59140	1470.35875	-678.69635	636.23454	1468.39164	-357.61662	643.12154	1455.20669	-551.98704	517.19580	1530.84391	-504.84899	523.67882	1443.26554	-684.70341	411.57076	1441.54820	-620.01268	687.32269	1444.80123	-408.04218	582.32734	1434.54924	-347.28644	687.08651	1373.27667	-291.43800	735.17815	1322.02494	-304.12679	689.75086	1276.68380	-223.44867	772.37873	1235.74691	-199.05119	721.96703	1172.56564	-237.65590	398.17783	1400.85761	-725.75687	372.55800	1312.39959	-710.94547	383.86355	1320.64130	-787.67773	357.03735	1233.61337	-857.11008	380.11609	1165.84271	-805.73030	839.12608	1242.70890	-248.45799	943.72325	1209.84415	-377.33060	970.63360	1182.27232	-323.94982	414.41997	1250.46094	-893.35245	585.92404	1230.12318	-944.92817	554.56792	1206.37010	-994.44380	632.59359	953.44391	-483.27504	542.18501	976.65909	-636.60134	
281	2.34167	573.14213	1026.02141	-697.75232	702.09468	1024.68017	-482.96943	469.12765	1047.32795	-538.05560	515.17512	1047.53665	-464.77284	680.34964	849.23697	-410.06059	701.81563	723.80649	-445.86929	624.26803	613.05710	-373.70623	635.08856	530.89331	-375.52106	549.30395	501.05675	-453.35256	497.57186	883.10892	-714.59780	532.25700	766.04287	-730.83638	449.93445	638.36603	-682.96692	437.96029	531.83510	-683.89518	509.24082	520.22359	-583.93275	633.24845	400.54643	-429.78628	636.48703	343.67379	-357.47867	609.92603	223.61743	-409.26458	591.23825	132.97866	-333.64729	567.07529	124.56235	-416.53519	495.79317	394.61538	-659.20228	422.66875	299.75482	-689.90901	469.01124	207.78429	-641.34119	463.04646	121.30201	-606.08790	392.05956	125.91736	-654.97680	513.82788	101.29766	-330.39853	688.77645	74.87757	-460.17814	716.88057	62.57418	-366.40680	362.25244	98.44996	-586.89771	543.71029	79.99763	-707.55762	470.71725	60.62405	-764.63026	444.61924	1470.39025	-678.65860	636.23001	1468.37585	-357.59920	643.13055	1455.20107	-551.95005	517.21081	1530.85149	-504.82086	523.70745	1443.28525	-684.66276	411.59439	1441.57390	-619.98698	687.32973	1444.78218	-408.00671	582.32166	1434.52905	-347.25094	687.06774	1373.24160	-291.42377	735.16616	1321.99678	-304.10587	689.73222	1276.64857	-223.44122	772.35855	1235.70508	-199.04786	721.97485	1172.52439	-237.64302	398.20547	1400.87959	-725.72674	372.62137	1312.41295	-710.92498	383.88615	1320.66364	-787.64610	357.07389	1233.65386	-857.09571	380.12422	1165.86112	-805.72495	839.11752	1242.68781	-248.44692	943.72793	1209.83750	-377.30629	970.60848	1182.24552	-323.96992	414.45094	1250.49209	-893.33282	585.94555	1230.16860	-944.91018	554.58776	1206.38835	-994.42278	632.57950	953.44137	-483.27574	542.18644	976.66384	-636.61027	
